C:\Users\Nicos\Documents\OpenSimProjects\SprintingProject\Study1\PredictiveResults\IC_pred_Sprinting_optimum_27-October-2023__18-13-56_p02_maxVel_01___HTD_Plus_2_GRF.mot
version=1
nRows=5
nColumns=127
inDegrees=yes
endheader
time	ground_force_vx	ground_force_vy	ground_force_vz	ground_force_px	ground_force_py	ground_force_pz	ground_torque_x	ground_torque_y	ground_torque_z	1_ground_force_vx	1_ground_force_vy	1_ground_force_vz	1_ground_force_px	1_ground_force_py	1_ground_force_pz	1_ground_torque_x	1_ground_torque_y	1_ground_torque_z	2_ground_force_vx	2_ground_force_vy	2_ground_force_vz	2_ground_force_px	2_ground_force_py	2_ground_force_pz	2_ground_torque_x	2_ground_torque_y	2_ground_torque_z	3_ground_force_vx	3_ground_force_vy	3_ground_force_vz	3_ground_force_px	3_ground_force_py	3_ground_force_pz	3_ground_torque_x	3_ground_torque_y	3_ground_torque_z	4_ground_force_vx	4_ground_force_vy	4_ground_force_vz	4_ground_force_px	4_ground_force_py	4_ground_force_pz	4_ground_torque_x	4_ground_torque_y	4_ground_torque_z	5_ground_force_vx	5_ground_force_vy	5_ground_force_vz	5_ground_force_px	5_ground_force_py	5_ground_force_pz	5_ground_torque_x	5_ground_torque_y	5_ground_torque_z	6_ground_force_vx	6_ground_force_vy	6_ground_force_vz	6_ground_force_px	6_ground_force_py	6_ground_force_pz	6_ground_torque_x	6_ground_torque_y	6_ground_torque_z	7_ground_force_vx	7_ground_force_vy	7_ground_force_vz	7_ground_force_px	7_ground_force_py	7_ground_force_pz	7_ground_torque_x	7_ground_torque_y	7_ground_torque_z	8_ground_force_vx	8_ground_force_vy	8_ground_force_vz	8_ground_force_px	8_ground_force_py	8_ground_force_pz	8_ground_torque_x	8_ground_torque_y	8_ground_torque_z	9_ground_force_vx	9_ground_force_vy	9_ground_force_vz	9_ground_force_px	9_ground_force_py	9_ground_force_pz	9_ground_torque_x	9_ground_torque_y	9_ground_torque_z	10_ground_force_vx	10_ground_force_vy	10_ground_force_vz	10_ground_force_px	10_ground_force_py	10_ground_force_pz	10_ground_torque_x	10_ground_torque_y	10_ground_torque_z	11_ground_force_vx	11_ground_force_vy	11_ground_force_vz	11_ground_force_px	11_ground_force_py	11_ground_force_pz	11_ground_torque_x	11_ground_torque_y	11_ground_torque_z	12_ground_force_vx	12_ground_force_vy	12_ground_force_vz	12_ground_force_px	12_ground_force_py	12_ground_force_pz	12_ground_torque_x	12_ground_torque_y	12_ground_torque_z	13_ground_force_vx	13_ground_force_vy	13_ground_force_vz	13_ground_force_px	13_ground_force_py	13_ground_force_pz	13_ground_torque_x	13_ground_torque_y	13_ground_torque_z
0.160421	-0.000000	0.000000	0.000000	0.523176	0.072210	0.395653	0.000000	0.000000	0.000000	-0.000000	0.000000	0.000000	0.529582	0.094526	0.416493	0.000000	0.000000	0.000000	-0.000000	0.000000	0.000000	0.537409	0.107031	0.412649	0.000000	0.000000	0.000000	-0.000000	0.000000	0.000000	0.536031	0.105047	0.390314	0.000000	0.000000	0.000000	-0.000000	0.000000	0.000000	0.545783	0.150213	0.442579	0.000000	0.000000	0.000000	-0.000000	0.000000	0.000000	0.539527	0.121751	0.407288	0.000000	0.000000	0.000000	-0.000000	0.000000	0.000000	0.547997	0.180634	0.385847	0.000000	0.000000	0.000000	-0.000000	0.000000	-0.000000	1.448491	0.120737	0.113630	0.000000	0.000000	0.000000	-0.000000	0.000000	-0.000000	1.418293	0.137739	0.093654	0.000000	0.000000	0.000000	-0.000000	0.000000	-0.000000	1.387541	0.145014	0.102239	0.000000	0.000000	0.000000	-0.000000	0.000000	-0.000000	1.384016	0.139525	0.121823	0.000000	0.000000	0.000000	-0.000000	0.000000	-0.000000	1.330456	0.178775	0.077598	0.000000	0.000000	0.000000	-0.000000	0.000000	-0.000000	1.363517	0.153598	0.107540	0.000000	0.000000	0.000000	-0.000000	0.000000	-0.000000	1.267420	0.187934	0.128745	0.000000	0.000000	0.000000
0.161068	-0.000000	0.000000	0.000000	0.527616	0.074402	0.395351	0.000000	0.000000	0.000000	-0.000000	0.000000	0.000000	0.534338	0.096664	0.416318	0.000000	0.000000	0.000000	-0.000000	0.000000	0.000000	0.542288	0.109218	0.412400	0.000000	0.000000	0.000000	-0.000000	0.000000	0.000000	0.540894	0.107272	0.390053	0.000000	0.000000	0.000000	-0.000000	0.000000	0.000000	0.551499	0.152315	0.442579	0.000000	0.000000	0.000000	-0.000000	0.000000	0.000000	0.544707	0.123935	0.407124	0.000000	0.000000	0.000000	-0.000000	0.000000	0.000000	0.554385	0.182801	0.386018	0.000000	0.000000	0.000000	-0.000000	0.000000	-0.000000	1.462352	0.119731	0.114261	0.000000	0.000000	0.000000	-0.000000	0.000000	-0.000000	1.431857	0.136586	0.094240	0.000000	0.000000	0.000000	-0.000000	0.000000	-0.000000	1.400987	0.143739	0.102814	0.000000	0.000000	0.000000	-0.000000	0.000000	-0.000000	1.397564	0.138252	0.122418	0.000000	0.000000	0.000000	-0.000000	0.000000	-0.000000	1.343321	0.177235	0.078084	0.000000	0.000000	0.000000	-0.000000	0.000000	-0.000000	1.376820	0.152225	0.108097	0.000000	0.000000	0.000000	-0.000000	0.000000	-0.000000	1.280155	0.186171	0.129228	0.000000	0.000000	0.000000
0.163115	-0.000000	0.000000	0.000000	0.542098	0.081312	0.394200	0.000000	0.000000	0.000000	-0.000000	0.000000	0.000000	0.549745	0.103393	0.415611	0.000000	0.000000	0.000000	-0.000000	0.000000	0.000000	0.558070	0.116114	0.411482	0.000000	0.000000	0.000000	-0.000000	0.000000	0.000000	0.556665	0.114296	0.389093	0.000000	0.000000	0.000000	-0.000000	0.000000	0.000000	0.569822	0.158903	0.442519	0.000000	0.000000	0.000000	-0.000000	0.000000	0.000000	0.561434	0.130810	0.406496	0.000000	0.000000	0.000000	-0.000000	0.000000	0.000000	0.574890	0.189592	0.386553	0.000000	0.000000	0.000000	-0.000000	0.000000	-0.000000	1.506152	0.116633	0.116253	0.000000	0.000000	0.000000	-0.000000	0.000000	-0.000000	1.474746	0.133024	0.096098	0.000000	0.000000	0.000000	-0.000000	0.000000	-0.000000	1.443518	0.139787	0.104642	0.000000	0.000000	0.000000	-0.000000	0.000000	-0.000000	1.440415	0.134309	0.124310	0.000000	0.000000	0.000000	-0.000000	0.000000	-0.000000	1.384060	0.172439	0.079639	0.000000	0.000000	0.000000	-0.000000	0.000000	-0.000000	1.418917	0.147964	0.109870	0.000000	0.000000	0.000000	-0.000000	0.000000	-0.000000	1.320512	0.180672	0.130782	0.000000	0.000000	0.000000
0.164598	-0.000000	0.000000	0.000000	0.553067	0.086291	0.393286	0.000000	0.000000	0.000000	-0.000000	0.000000	0.000000	0.561316	0.108236	0.415033	0.000000	0.000000	0.000000	-0.000000	0.000000	0.000000	0.569896	0.121089	0.410762	0.000000	0.000000	0.000000	-0.000000	0.000000	0.000000	0.568510	0.119363	0.388342	0.000000	0.000000	0.000000	-0.000000	0.000000	0.000000	0.583380	0.163631	0.442444	0.000000	0.000000	0.000000	-0.000000	0.000000	0.000000	0.573924	0.135760	0.405995	0.000000	0.000000	0.000000	-0.000000	0.000000	0.000000	0.590034	0.194448	0.386928	0.000000	0.000000	0.000000	-0.000000	0.000000	-0.000000	1.537883	0.114469	0.117691	0.000000	0.000000	0.000000	-0.000000	0.000000	-0.000000	1.505839	0.130521	0.097445	0.000000	0.000000	0.000000	-0.000000	0.000000	-0.000000	1.474368	0.137002	0.105970	0.000000	0.000000	0.000000	-0.000000	0.000000	-0.000000	1.471492	0.131533	0.125682	0.000000	0.000000	0.000000	-0.000000	0.000000	-0.000000	1.413655	0.169035	0.080783	0.000000	0.000000	0.000000	-0.000000	0.000000	-0.000000	1.449465	0.144953	0.111162	0.000000	0.000000	0.000000	-0.000000	0.000000	-0.000000	1.349853	0.176758	0.131928	0.000000	0.000000	0.000000
0.165245	-0.000000	0.000000	0.000000	0.557991	0.088454	0.392892	0.000000	0.000000	0.000000	-0.000000	0.000000	0.000000	0.566487	0.110340	0.414783	0.000000	0.000000	0.000000	-0.000000	0.000000	0.000000	0.575172	0.123252	0.410450	0.000000	0.000000	0.000000	-0.000000	0.000000	0.000000	0.573799	0.121565	0.388017	0.000000	0.000000	0.000000	-0.000000	0.000000	0.000000	0.589382	0.165683	0.442408	0.000000	0.000000	0.000000	-0.000000	0.000000	0.000000	0.579481	0.137911	0.405777	0.000000	0.000000	0.000000	-0.000000	0.000000	0.000000	0.596717	0.196549	0.387087	0.000000	0.000000	0.000000	-0.000000	0.000000	-0.000000	1.551730	0.113547	0.118317	0.000000	0.000000	0.000000	-0.000000	0.000000	-0.000000	1.519414	0.129449	0.098032	0.000000	0.000000	0.000000	-0.000000	0.000000	-0.000000	1.487841	0.135807	0.106550	0.000000	0.000000	0.000000	-0.000000	0.000000	-0.000000	1.485063	0.130342	0.126281	0.000000	0.000000	0.000000	-0.000000	0.000000	-0.000000	1.426591	0.167568	0.081285	0.000000	0.000000	0.000000	-0.000000	0.000000	-0.000000	1.462810	0.143660	0.111727	0.000000	0.000000	0.000000	-0.000000	0.000000	-0.000000	1.362685	0.175070	0.132433	0.000000	0.000000	0.000000
